<?xml version="1.0" encoding="utf-8"?>
<!-- Generator: Adobe Illustrator 22.1.0, SVG Export Plug-In . SVG Version: 6.00 Build 0)  -->
<svg version="1.1" id="Logo" xmlns="http://www.w3.org/2000/svg" xmlns:xlink="http://www.w3.org/1999/xlink" x="0px" y="0px"
	 viewBox="0 0 250 250" style="enable-background:new 0 0 250 250;" xml:space="preserve">
<style type="text/css">
	.st0{fill:#FFFFFF;}
	.st1{fill:#44BFEF;}
	.st2{fill:#FFD100;}
</style>
<rect class="st0" width="250" height="250"/>
<title>Artboard 1</title>
<g>
	<path class="st1" d="M223.5,114.2l-30.2,21.6H88.6c-5.9,0-10.8,4.8-10.8,10.8v38.7c0,5.9,4.8,10.8,10.8,10.8h124.1
		c5.9,0,10.8-4.8,10.8-10.8V114.2z"/>
	<g id="hello">
		<path class="st2" d="M26.5,114.3v21.5l30.2-21.5H161c5.9,0,10.8-4.8,10.8-10.8l0,0V64.7c0-5.9-4.8-10.8-10.8-10.8H37.3
			c-5.9,0-10.8,4.8-10.8,10.8l0,0V114.3z"/>
	</g>
</g>
</svg>
