<?xml version="1.0" encoding="utf-8"?>
<!-- Generator: Adobe Illustrator 22.1.0, SVG Export Plug-In . SVG Version: 6.00 Build 0)  -->
<svg version="1.1" id="Layer_1" xmlns="http://www.w3.org/2000/svg" xmlns:xlink="http://www.w3.org/1999/xlink" x="0px" y="0px"
	 viewBox="0 0 149.9 62.7" style="enable-background:new 0 0 149.9 62.7;" xml:space="preserve">
<style type="text/css">
	.st0{fill:#FFFFFF;}
	.st1{fill:#2A2A2A;}
	.st2{fill:#00BFEF;}
</style>
<g>
	<path class="st0" d="M80.7,1.6H8.3c-2.5,0-4.5,2-4.5,4.4c0,0,0,17.9,0.1,18.2l0,10.3l7.2-6.8h69.7c2.5,0,4.5-2,4.5-4.4V6
		C85.2,3.6,83.2,1.6,80.7,1.6"/>
	<polygon class="st1" points="15,8.7 18.1,8.7 18.1,12.9 22.1,12.9 22.1,8.7 25.3,8.7 25.3,19.8 22.1,19.8 22.1,15.6 18.1,15.6 
		18.1,19.8 15,19.8 	"/>
	<polygon class="st1" points="29,8.7 38.1,8.7 38.1,11.4 32.1,11.4 32.1,13 37.5,13 37.5,15.5 32.1,15.5 32.1,17.2 38.2,17.2 
		38.2,19.8 29,19.8 	"/>
	<polygon class="st1" points="41.6,8.7 44.8,8.7 44.8,17.2 50.3,17.2 50.3,19.8 41.6,19.8 	"/>
	<polygon class="st1" points="53,8.7 56.1,8.7 56.1,17.2 61.6,17.2 61.6,19.8 53,19.8 	"/>
	<path class="st1" d="M63.8,14.3L63.8,14.3c0-3.2,2.6-5.8,6.1-5.8c3.5,0,6.1,2.5,6.1,5.7v0c0,3.2-2.6,5.8-6.1,5.8
		S63.8,17.5,63.8,14.3 M72.8,14.3L72.8,14.3c0-1.6-1.2-3-2.9-3s-2.8,1.4-2.8,3v0c0,1.6,1.2,3,2.9,3S72.8,15.9,72.8,14.3"/>
	<path class="st2" d="M145.9,38.6l0-10.3l-7.2,6.8H18.3c-2.5,0-4.5,2-4.5,4.4v17.3c0,2.4,2,4.4,4.5,4.4h123.2c2.5,0,4.5-2,4.5-4.4
		C146,56.7,145.9,38.8,145.9,38.6"/>
	<polygon class="st0" points="25.4,42.5 28.5,42.5 28.5,50.9 34,50.9 34,53.6 25.4,53.6 	"/>
	<path class="st0" d="M41,42.5h3l4.8,11.2h-3.4l-0.8-2h-4.4l-0.8,2h-3.3L41,42.5z M43.8,49.2l-1.3-3.2l-1.3,3.2H43.8z"/>
	<polygon class="st0" points="51.4,42.5 54.7,42.5 57.4,46.8 60.1,42.5 63.4,42.5 63.4,53.6 60.3,53.6 60.3,47.3 57.4,51.6 
		57.3,51.6 54.5,47.3 54.5,53.6 51.4,53.6 	"/>
	<path class="st0" d="M67.1,42.5h4.8c2.8,0,4.7,1.4,4.7,3.9v0c0,2.6-2.1,4-4.9,4h-1.6v3.2h-3.1L67.1,42.5L67.1,42.5z M71.7,48
		c1.1,0,1.8-0.6,1.8-1.4v0c0-0.9-0.7-1.5-1.8-1.5h-1.5V48H71.7z"/>
	<path class="st0" d="M85.6,42.5h4.8c2.8,0,4.7,1.4,4.7,3.9v0c0,2.6-2.1,4-4.9,4h-1.6v3.2h-3.1V42.5z M90.2,48
		c1.1,0,1.8-0.6,1.8-1.4v0c0-0.9-0.7-1.5-1.8-1.5h-1.5V48H90.2z"/>
	<path class="st0" d="M97.6,48.1L97.6,48.1c0-3.2,2.6-5.8,6.1-5.8s6.1,2.5,6.1,5.7v0c0,3.2-2.6,5.8-6.1,5.8S97.6,51.3,97.6,48.1
		 M106.6,48.1L106.6,48.1c0-1.6-1.2-3-2.9-3s-2.8,1.4-2.8,3v0c0,1.6,1.2,3,2.9,3S106.6,49.7,106.6,48.1"/>
	<path class="st0" d="M111.8,52l1.7-2c1.1,0.9,2.4,1.3,3.7,1.3c0.8,0,1.3-0.3,1.3-0.8v0c0-0.5-0.4-0.7-1.9-1.1
		c-2.4-0.5-4.3-1.2-4.3-3.5v0c0-2.1,1.7-3.5,4.4-3.5c1.9,0,3.4,0.5,4.7,1.5l-1.6,2.2c-1-0.7-2.2-1.1-3.2-1.1c-0.8,0-1.1,0.3-1.1,0.7
		v0c0,0.5,0.4,0.7,1.9,1.1c2.6,0.6,4.2,1.4,4.2,3.5v0c0,2.3-1.8,3.6-4.6,3.6C115.1,53.8,113.2,53.2,111.8,52"/>
	<polygon class="st0" points="127.3,45.2 123.9,45.2 123.9,42.5 133.9,42.5 133.9,45.2 130.5,45.2 130.5,53.6 127.3,53.6 	"/>
</g>
</svg>
